<?xml version="1.0" encoding="utf-8"?>
<!-- Generator: Adobe Illustrator 18.1.1, SVG Export Plug-In . SVG Version: 6.00 Build 0)  -->
<svg version="1.1" id="Calque_1" xmlns="http://www.w3.org/2000/svg" xmlns:xlink="http://www.w3.org/1999/xlink" x="0px" y="0px"
	 viewBox="0 0 14400 14400" enable-background="new 0 0 14400 14400" xml:space="preserve">
<g>
	<path fill="#995894" d="M7191.9,7204.6c0,0-0.7-6.1,4.7-8.2c5.4-2.1,10.9-0.3,10.9-0.3s-1.5,6.8-5.4,8.3
		C7198.1,7205.7,7191.9,7204.6,7191.9,7204.6z"/>
	<g>
		<path fill="#995894" d="M7191.9,7203.4c0.1,1.4,0,0.2,0.2-0.3c0.3-0.7,0.4-1.5,0.8-2.2c0.8-1.5,2.1-2.6,3.7-3.3
			c3.3-1.4,7.5-1.4,10.9-0.3c0-0.8,0-1.7,0-2.5c-0.6,2.7-1.9,6.1-4.3,7.7C7200.1,7204.5,7195.3,7204,7191.9,7203.4
			c0.1,0-0.2,2.5,0,2.5c3.4,0.6,8.2,1.1,11.2-0.9c2.4-1.6,3.7-5,4.3-7.7c0.1-0.2,0.1-2.5,0-2.5c-5-1.5-12.7-1.1-14.9,4.4
			c-0.8,2-0.8,4.5-0.6,6.6C7191.8,7205.1,7192,7204.2,7191.9,7203.4z"/>
	</g>
</g>
</svg>
