<?xml version="1.0" encoding="utf-8"?>
<!-- Generator: Adobe Illustrator 18.1.1, SVG Export Plug-In . SVG Version: 6.00 Build 0)  -->
<svg version="1.1" id="Calque_1" xmlns="http://www.w3.org/2000/svg" xmlns:xlink="http://www.w3.org/1999/xlink" x="0px" y="0px"
	 viewBox="0 0 500 500" enable-background="new 0 0 500 500" xml:space="preserve">
<g>
	<path fill="#4D872A" d="M178.7,9.6c0,0,50,81.8-11.9,147.7S15.1,234,15.1,234s-23.8-106.9,22.2-153S178.7,9.6,178.7,9.6z"/>
	<g>
		<path fill="#4D872A" d="M178.7,12.1c6.3,10.4,10.7,22.3,13.9,33.9c7.4,26.5,6.7,54.1-5.3,79.2c-13.9,29.1-40.9,51.3-67.8,67.9
			c-21.7,13.4-45.4,23.6-69.9,30.7c-7.8,2.3-15.8,4.3-23.8,5.9c-2.4,0.5-4.9,0.9-7.4,1.3c-0.5,0.1-2.7,0.8-3.2,0.5
			c-1-0.7-1.3-6.1-1.5-7.3c-1.3-7.4-2.3-14.8-3.1-22.3c-2.6-25.3-2.5-51.2,4-75.9c3-11.4,7.5-22.5,14.1-32.2
			C35.9,83.6,45.7,75.3,55.7,68c35.3-26,78.4-43.2,120.4-55.1C177,12.6,177.8,12.3,178.7,12.1c0.5-0.1-0.4-4.9,0-5
			c-13.4,3.6-26.5,8.1-39.5,13c-26.4,9.9-52.5,21.8-76,37.6C52,65.2,40.7,73.8,32.2,84.4c-7.8,9.8-13,21.4-16.5,33.3
			c-6.4,22.1-7.3,45.5-6.4,68.3c0.6,16.3,2.3,32.6,5.6,48.6c0.5,2.7,1,1.9,3.7,1.5c6.4-1,12.7-2.4,19-3.9
			c24.5-6,48.3-15.1,70.4-27.2c29.1-15.9,58.8-38.1,75.6-67.3c22.2-38.6,17.5-89.5-3.2-127.7c-0.5-0.9-1-1.8-1.5-2.7
			C179.4,8.3,177.9,10.9,178.7,12.1z"/>
	</g>
</g>
<g>
	<path fill="#4D872A" d="M207.3,483.2c0,0-89.8,33.7-142.9-39.5S17.7,280.4,17.7,280.4s109.5-3.2,146,50.6S207.3,483.2,207.3,483.2z
		"/>
	<g>
		<path fill="#4D872A" d="M207.3,480.7c-30,11.2-67.2,10.9-96.5-1.7c-29.4-12.6-49-37.7-63.4-65.4c-14.2-27.2-22.9-57.1-27.1-87.4
			c-1.5-10.7-2.4-21.5-2.7-32.3c0-1.4-1-10.1,0.2-11.1c0.5-0.4,2.7,0,3.2,0c2.4,0,4.9,0,7.3,0.1c8.1,0.2,16.1,0.7,24.1,1.6
			c22.6,2.3,45.4,6.7,66.4,15.4c10.9,4.5,21.5,10.3,30.6,17.9c9.4,7.9,16.3,17.8,22.1,28.6c13.4,24.9,21.3,52.8,27.1,80.3
			c3.8,18.4,6.7,37,8.4,55.7c0.1,1,0.2,2.1,0.3,3.2C207.2,484.5,207.4,482.3,207.3,480.7c-1-13.7-3-27.5-5.3-41.1
			c-4.8-28.2-11.7-56.5-23-82.8c-5.3-12.3-11.6-24.9-20.4-35c-8-9.3-18.2-16.4-29.1-22c-21.4-11-45.4-16.4-69.1-19.4
			c-14.1-1.8-28.5-2.9-42.7-2.5c0,0,0,0.1,0,0.1c-2.7,39.7,4.9,81.6,19.5,118.3c12.3,30.9,30.6,62.5,59.5,80.4
			c21,13,45.8,17.9,70.3,16.6c13.5-0.7,27.6-2.8,40.4-7.6C207.9,485.5,206.8,480.9,207.3,480.7z"/>
	</g>
</g>
</svg>
