<?xml version="1.0" encoding="utf-8"?>
<!-- Generator: Adobe Illustrator 18.1.1, SVG Export Plug-In . SVG Version: 6.00 Build 0)  -->
<svg version="1.1" id="Calque_1" xmlns="http://www.w3.org/2000/svg" xmlns:xlink="http://www.w3.org/1999/xlink" x="0px" y="0px"
	 viewBox="0 0 500 500" enable-background="new 0 0 500 500" xml:space="preserve">
<g>
	<path fill="#4D872A" d="M318.6,492c0,0-51.5-81.1,9.5-148.2s150.7-79.3,150.7-79.3s25.6,106.7-19.7,153.6S318.6,492,318.6,492z"/>
	<g>
		<path fill="#4D872A" d="M318.6,489.5c-6.6-10.4-11.2-22.4-14.6-34.1c-7.8-26.8-7.4-54.7,4.6-80.2c13.7-29.1,40.5-51.7,67.2-68.6
			c21.4-13.5,44.8-24,68.9-31.4c7.7-2.4,15.6-4.5,23.5-6.2c2.4-0.5,4.8-1,7.3-1.4c0.5-0.1,2.6-0.8,3.1-0.5c1.1,0.6,1.4,6.1,1.7,7.3
			c1.4,7.5,2.6,15,3.5,22.5c3,25.5,3.4,51.7-3,76.7c-2.9,11.5-7.3,22.7-14,32.5c-7.1,10.3-16.9,18.7-26.8,26.2
			c-34.9,26.3-77.2,43.9-118.8,56.5C320.3,489,319.5,489.3,318.6,489.5c-0.5,0.1,0.4,4.9,0,5c13.2-3.8,26.1-8.5,38.9-13.5
			c26.1-10.3,51.9-22.5,75-38.4c11.2-7.7,22.4-16.4,30.9-27.1c7.9-9.8,13-21.5,16.4-33.6c6.3-22.2,6.9-45.9,5.7-68.9
			c-0.8-16.4-2.9-33-6.4-49.1c-0.6-2.7-1-1.9-3.7-1.5c-6.3,1.1-12.6,2.6-18.8,4.2c-24.2,6.4-47.7,15.7-69.5,28
			c-28.8,16.3-58.2,38.8-74.8,68c-22.3,39.2-17.1,90.6,4.5,129.1c0.5,0.9,1,1.8,1.6,2.7C317.9,493.3,319.4,490.7,318.6,489.5z"/>
	</g>
</g>
<g>
	<path fill="#4D872A" d="M282.3,18c0,0,89.4-35.3,143.8,37.2s49.5,162.9,49.5,162.9s-109.6,5-147.1-48.3S282.3,18,282.3,18z"/>
	<g>
		<path fill="#4D872A" d="M282.3,20.5c30.1-11.8,67.7-12,97.5,0.5c29.9,12.5,50,38.1,64.8,66.1c14.2,26.8,23.2,56.3,27.7,86.2
			c1.6,10.5,2.7,21.1,3.1,31.7c0.1,1.5,1.2,9.5,0,10.5c-0.5,0.4-2.7,0.1-3.3,0.1c-2.6,0-5.1,0-7.7,0c-8.2-0.1-16.4-0.5-24.6-1.2
			c-22.9-2-45.9-6.2-67.3-14.8c-11-4.5-21.7-10.2-30.8-17.9c-9.7-8.1-16.7-18.4-22.6-29.5c-13.4-24.8-21.6-52.3-27.6-79.7
			c-4-17.9-7.1-36-9-54.3c-0.1-0.9-0.2-1.9-0.3-2.8C282.4,17.1,282.1,18.8,282.3,20.5c1.2,14,3.5,27.9,6.1,41.7
			c5.3,27.8,12.5,55.7,24.1,81.6c5.6,12.4,12.1,25.1,21.2,35.2c8,8.9,18,15.8,28.7,21.1c21.8,10.9,46.3,16.1,70.4,18.7
			c14.1,1.6,28.5,2.5,42.7,1.8c0,0,0-0.1,0-0.1c2.1-39.4-6-80.8-21-117.1c-12.6-30.8-31.4-62.4-60.5-80.1
			c-21.3-13-46.4-17.7-71.1-16.1c-13.6,0.9-27.9,3.2-40.7,8.3C281.7,15.7,282.8,20.3,282.3,20.5z"/>
	</g>
</g>
</svg>
