<?xml version="1.0" encoding="utf-8"?>
<!-- Generator: Adobe Illustrator 18.1.1, SVG Export Plug-In . SVG Version: 6.00 Build 0)  -->
<svg version="1.1" id="Calque_1" xmlns="http://www.w3.org/2000/svg" xmlns:xlink="http://www.w3.org/1999/xlink" x="0px" y="0px"
	 viewBox="0 0 500 500" enable-background="new 0 0 500 500" xml:space="preserve">
<g>
	<path fill="#4D872A" d="M344.9,55.4c4-0.8,29.5-1,30.8,2.9c5.2,15.1,13.8,53.4-18.6,81.6c-41.2,35.9-94.3,41.7-94.3,41.7
		s-5.4-66.1,21-95.3C304,64,328.7,58.7,344.9,55.4z"/>
	<g>
		<path fill="#4D872A" d="M344.9,57.9c4.4-0.8,9.2-0.5,13.7-0.4c4.5,0.1,11.8-0.4,15.8,2.1c2.8,1.8,3.3,7.3,4,10.4
			c1.4,5.9,2.4,12.2,2.4,18.3c-0.4,36.1-31.5,59.4-61.3,73.6c-12.7,6.1-26.1,10.7-39.8,14c-4,1-8.1,1.8-12.2,2.5
			c-0.6,0.1-4,1.1-4.5,0.7c-0.6-0.4-0.2-4.4-0.3-5c-0.2-5.5-0.1-11,0.1-16.4c0.7-13.7,2.5-27.6,6.5-40.8
			c5.1-16.7,14.2-30.1,28.5-40.4C311.8,66.2,328.1,61.3,344.9,57.9c0.4-0.1-0.3-4.9,0-5c-16.5,3.4-32.6,8.1-46.6,18
			C284,81,274.6,94.4,269.4,111.1c-6.8,22.2-7.8,46.3-6.7,69.3c0,0.9-0.2,3,0.5,3.4c1.2,0.8,6.5-1,7.8-1.3
			c13.3-2.5,26.3-6.5,38.7-11.6c18.2-7.5,36.3-17.8,50.5-31.6c12.4-12.1,19.6-28.1,20.5-45.3c0.6-12-0.5-24-4-35.5
			c-0.7-2.2-0.9-3.5-3.1-4.4c-2.9-1.2-6.5-1.3-9.6-1.5c-6.2-0.4-13-0.9-19.1,0.2C344.6,52.9,345.2,57.8,344.9,57.9z"/>
	</g>
</g>
<g>
	<path fill="#4D872A" d="M115,79c0,0,49.1-16.7,86.5,23.2c29.5,31.4,29,98.5,29,98.5s-66.1,2.4-88.4-29.9S115,79,115,79z"/>
	<g>
		<path fill="#4D872A" d="M115,81.5c20.5-6.9,45.5-3.9,64.4,6.1c31,16.5,43.2,49.1,48.3,82c1.1,7.1,1.9,14.2,2.3,21.4
			c0.2,2.4,0.3,4.8,0.4,7.2c0,1.3,0.1,5.5,0.1,1.3c0-0.4,0-0.8,0-1.2c-20.9,0.7-43.6-2.3-62.9-10.6c-14.6-6.3-24.8-16.1-31.9-30.2
			c-7.9-15.5-12.5-32.5-15.9-49.5c-2.1-10.4-3.8-20.9-4.7-31.4C115.1,78.2,114.9,79.9,115,81.5c2,25.3,7.5,51.7,17.8,75
			c6.5,14.7,15.2,26.4,29.7,33.8c12.9,6.6,27.4,9.8,41.7,11.5c8.7,1.1,17.5,1.7,26.2,1.4c0,0,0-1.2,0-1.2c0.1-21.7-2.6-43.9-9-64.7
			c-5.4-17.6-14-33.6-28.4-45.4c-14-11.5-31.3-17.9-49.4-18.7c-9.5-0.4-19.6,0.3-28.7,3.4C114.5,76.7,115.5,81.4,115,81.5z"/>
	</g>
</g>
<g>
	<path fill="#4D872A" d="M240,238.9c0,0,18.6,63.8-2.4,89.5c-12.9,15.8-28.6,26.9-43.2,34.6c-10.8,5.7-36.8,8.3-42.2,8.8
		c-0.6,0.1-1.1-0.3-1.3-0.9c-1.5-4.9-8.5-27.9-8.2-39.5c0.4-16.3,3.9-33.3,14.2-44.9C210.6,226.1,240,238.9,240,238.9z"/>
	<g>
		<path fill="#4D872A" d="M240,241.4c5.6,19.2,9.5,41.2,6.6,61.1c-0.9,6-2.4,12.1-5.2,17.5c-3.8,7.4-10.4,13.6-16.5,19.2
			c-11.9,10.9-26.3,21.4-42.1,25.4c-6.9,1.7-14,2.8-21.1,3.7c-2.4,0.3-4.8,0.6-7.2,0.8c-2.4,0.2-3.1,0.2-3.9-2.2
			c-4.7-13-8.5-28.6-7.1-42c1-9.3,3.1-18.7,7.5-27c4.5-8.6,12-15.6,18.8-22.4c10.7-10.6,22.6-20.6,36-27.7
			C214.8,243.2,229.5,236.9,240,241.4c-0.6-0.2,0.6-4.7,0-5c-10-4.3-24.2,1.4-33,5.9c-15,7.6-28.1,18.9-39.8,30.8
			c-7.6,7.7-15,15.4-19,25.6c-3.6,9.1-5,19-5.4,28.7c-0.5,12.9,2.2,25.3,5.7,37.7c0.7,2.4,1,5.6,2.3,7.7c1.2,2.1,2.8,1.4,5.2,1.2
			c7.3-0.8,14.6-1.8,21.8-3.3c17.8-3.7,33.2-13.8,46.6-25.9c6.6-5.9,13.6-12.6,17.6-20.6c3-6.2,4.5-13.2,5.2-20.1
			c2.3-22.4-0.8-46.1-7.1-67.7C240.5,238,239.6,239.9,240,241.4z"/>
	</g>
</g>
<g>
	<g>
		<path fill="#673A62" d="M253.2,217.2c28.6,0.1,57.9,7.9,79.2,28c15.8,14.8,26.2,35.6,26.3,57.5c0,9.4-1.9,18.9-6.2,27.3
			c-5.3,10.3-13.9,17.4-22.9,24.5c-26.1,20.5-55.4,36.7-84,53.3c-12.5,7.3-25.3,14.4-37.1,22.9c-5.6,4-15.7,10.5-15.2,18.7
			c0.4,6.4,10.4,6.4,10,0c0-0.6-0.2-0.2,0.3-1c0.7-1.2,1.2-1.7,2.7-3.2c3.1-3.1,6.8-5.6,10.4-8.1c11.5-7.8,23.6-14.7,35.6-21.7
			c29.4-17.1,59.3-33.8,85.9-55.1c9.3-7.4,17.9-15.2,23.3-26c4.6-9.3,7-19.6,7.2-29.9c0.5-23.2-9.6-45.7-25.3-62.4
			c-23.2-24.6-57.1-34.6-90.2-34.8C246.8,207.2,246.8,217.2,253.2,217.2L253.2,217.2z"/>
	</g>
</g>
</svg>
