<?xml version="1.0" encoding="utf-8"?>
<!-- Generator: Adobe Illustrator 18.1.1, SVG Export Plug-In . SVG Version: 6.00 Build 0)  -->
<svg version="1.1" id="Calque_1" xmlns="http://www.w3.org/2000/svg" xmlns:xlink="http://www.w3.org/1999/xlink" x="0px" y="0px"
	 viewBox="0 0 500 500" enable-background="new 0 0 500 500" xml:space="preserve">
<g>
	<path fill="#4D872A" d="M54,21.6c0,0,80.4,17.3,84.8,94.8c4.4,77.5-42.1,139.7-42.1,139.7s-80.5-48.5-81.9-104.3S54,21.6,54,21.6z"
		/>
	<g>
		<path fill="#4D872A" d="M54,24.1c22.2,4.8,44.2,17.8,59.5,34.3c36.8,39.5,27.9,98.9,9.7,145.1c-6.3,16-14.1,31.5-23.6,45.8
			c-0.9,1.3-2.1,4.1-3.4,4c-1,0-3-1.9-3.8-2.4c-2.3-1.5-4.5-3-6.7-4.6c-15.3-10.8-29.7-23-42.2-36.9c-14.2-15.9-27.4-35.8-28.7-57.8
			c-0.8-13.7,2.2-28,5.4-41.2c3-12.2,6.8-24.2,11.2-36C37.6,58,44.6,42,52.7,26.5C53.1,25.7,53.5,24.9,54,24.1c0.7-1.3-0.7-3.7,0-5
			c-6.7,12.3-12.5,25.3-17.8,38.3c-10.2,25-18.8,51.4-21,78.5c-0.7,8.6-1,17.7,0.3,26.3c1.8,11.3,6.5,22,12.5,31.7
			c11.8,19,28.4,34.9,45.9,48.6c5.8,4.6,11.8,8.9,17.9,13c1.4,1,3.9,3.3,5.2,2.6c1-0.5,2.3-3.3,2.9-4.2c1.7-2.6,3.3-5.2,4.9-7.8
			c5-8.4,9.5-17.1,13.5-26c11.5-25.5,19-53,20.4-81.1c1.2-23-0.4-46.4-11.8-67c-9.2-16.6-23.6-29.9-40-39.3
			c-9.3-5.4-20.6-11.3-31.4-13.1c-0.6-0.1-1.1-0.3-1.7-0.4C54.3,19.2,53.6,24,54,24.1z"/>
	</g>
</g>
<g>
	<path fill="#4D872A" d="M365.2,284.1c0,0-32.1,75.7-109.1,65.4C179.3,339.2,127,281.9,127,281.9s62.8-70,117.9-60.8
		S365.2,284.1,365.2,284.1z"/>
	<g>
		<path fill="#4D872A" d="M365.2,281.6c-10.7,25.1-32.6,47.8-57.5,58.7c-25,10.9-52,8.5-77.7,1.3c-25.7-7.2-49.8-19.6-71.4-35.1
			c-11.2-8-22.3-16.9-31.6-27c0,1.7,0,3.3,0,5c20.4-22.7,46.7-43.4,75.1-54.7c9.7-3.9,20-6.6,30.5-6.9c11.3-0.4,22.6,2.6,33.3,6.1
			c22.9,7.6,44.4,19.6,64.7,32.7c12,7.7,23.8,16,34.8,25C364.4,286,366.1,282.3,365.2,281.6c-27-22.2-58.2-41.9-90.8-54.6
			c-10.7-4.2-22.2-7.9-33.7-9c-10.5-1-21.2,0.7-31.2,3.9c-20.1,6.4-38.4,18.4-54.7,31.5c-9.8,7.9-19.4,16.5-27.9,25.9
			c-0.3,0.3-0.3,4.7,0,5c7.6,8.3,16.4,15.5,25.2,22.3c20.3,15.5,42.9,28.2,67,36.5c25.8,8.9,54.2,13.9,80.7,5.1
			c18.9-6.3,35.1-18.7,47.7-33.9c6.9-8.3,13.4-17.7,17.7-27.7C365.8,285.2,364.6,283,365.2,281.6z"/>
	</g>
</g>
</svg>
